<?xml version="1.0" encoding="utf-8"?>
<!-- Generator: Adobe Illustrator 18.1.0, SVG Export Plug-In . SVG Version: 6.00 Build 0)  -->
<svg version="1.1" id="Layer_1" xmlns="http://www.w3.org/2000/svg" xmlns:xlink="http://www.w3.org/1999/xlink" x="0px" y="0px"
	 viewBox="0 0 269 269.9" enable-background="new 0 0 269 269.9" xml:space="preserve">
<path fill-rule="evenodd" clip-rule="evenodd" fill="#B2D235" d="M81.8,202.5l61.2,61.1c4.1,4.1,9.5,6.3,15.2,6.3
	c5.8,0,11.2-2.2,15.2-6.3l89.4-89.3c8.4-8.4,8.4-22,0-30.4l-133-133c-4.1-4.1-9.5-6.3-15.2-6.3c-5.7,0-11.1,2.2-15.2,6.3L9.9,100.1
	c-4.1,4.1-6.3,9.5-6.3,15.2c0,5.7,2.3,11.1,6.3,15.2L81.8,202.5z"/>
<g>
	<g>
		<g>
			<g>
				<g>
					<g>
						<path fill="#004785" d="M253.6,153.1l-38.8-38.8c0.3,3.1-0.8,6.4-3.2,8.8l-89.4,89.4c-2.4,2.4-5.6,3.4-8.8,3.2l38.8,38.8
							c3.3,3.3,8.6,3.3,11.9,0l89.4-89.4C256.8,161.7,256.8,156.4,253.6,153.1z"/>
					</g>
				</g>
				<g>
					<path fill="#004785" d="M209.8,109.4c3.3,3.3,3.3,8.6,0,11.9l-89.4,89.4c-3.3,3.3-8.6,3.3-11.9,0l-89.4-89.4
						c-3.3-3.3-3.3-8.6,0-11.9L108.5,20c3.3-3.3,8.6-3.3,11.9,0L209.8,109.4z"/>
					<g>
						<g>
							<g>
								<path fill="#FFFFFF" d="M88.2,134l-0.2,0.2c-3.6,3.7-7.7,5.6-12,5.6c-8.9,0-15.4-6.7-15.4-15.9c0-9.2,6.5-15.9,15.4-15.9
									c4.3,0,8.4,1.9,12,5.6l0.2,0.2l5.7-6.9l-0.2-0.2c-4.8-5.6-10.5-8.4-17.5-8.4c-7.1,0-13.5,2.4-18.2,6.6
									c-5,4.6-7.7,11.2-7.7,18.9c0,7.7,2.7,14.3,7.7,18.9c4.7,4.3,11.1,6.6,18.2,6.6c7,0,12.7-2.7,17.5-8.4L94,141L88.2,134z"/>
								<polygon fill="#FFFFFF" points="99.8,99.2 99.8,148.6 109.9,148.6 109.9,142.1 109.9,99.2 								"/>
								<path fill="#FFFFFF" d="M149.5,137.8c-2.7,1.6-5.2,2.5-7.5,2.5c-3.3,0-4.7-1.7-4.7-5.6v-26.2h10.3v-9.3h-10.3V83.8l-9.9,5.3
									v10.1h-8.6v9.3h8.6v27.9c0,7.6,4.5,12.8,11.2,12.9c4.6,0.1,7.3-1.3,9-2.3l0.1-0.1l2.4-9.5L149.5,137.8z"/>
								<polygon fill="#FFFFFF" points="157.9,99.2 157.9,148.6 168,148.6 168,141.1 168,99.2 								"/>
								<path fill="#ED1C24" d="M174.4,91.2c-8.4-12.6-24-21.6-40.7-21.6c-16.4,0-32,8.7-40.7,21.6h11.6
									c7.9-8.2,18.2-12.6,29.1-12.6c10.6,0,21.1,4.5,29,12.6H174.4z"/>
							</g>
						</g>
					</g>
				</g>
			</g>
		</g>
		<g>
			<path fill="#FFFFFF" d="M167.1,232.2c-6.1,6.1-15.1,5-22.3-2.2c-7.2-7.2-8.4-16.2-2.2-22.3c6.2-6.2,15.1-5,22.3,2.2
				C172.1,217.1,173.3,226,167.1,232.2z M146.2,211.3c-4.1,4.1-3.1,9.8,2.3,15.1c5.3,5.3,11,6.4,15.1,2.3c4.2-4.2,3.1-9.8-2.2-15.1
				C156,208.2,150.3,207.1,146.2,211.3z"/>
			<path fill="#FFFFFF" d="M181.6,199.2l-6.2,6.2l8.9,8.9l-3.5,3.5L157,194l9.9-9.9c4.4-4.4,10.1-5.1,15.1-0.2
				C186.9,188.8,186.2,194.6,181.6,199.2z M170.3,187.5l-6.4,6.4l8.2,8.2l6.4-6.4c2.7-2.7,2.5-5.6,0-8.2
				C175.8,184.9,172.7,185,170.3,187.5z"/>
			<path fill="#FFFFFF" d="M201.9,196.7L178.1,173l15.3-15.3l3.5,3.5l-11.7,11.7l5.9,5.9l6.8-6.8l3.5,3.5l-6.8,6.8l7.5,7.5
				l12.3-12.3l3.5,3.5L201.9,196.7z"/>
			<path fill="#FFFFFF" d="M236.3,162.3l-24.4-5.4c-1.5-0.3-3.7-0.9-4.7-1.2c0.9,0.9,4.2,4.1,5.5,5.5l12.3,12.3l-3.5,3.5l-23.8-23.7
				l3.6-3.6L225,155c1.6,0.4,4.4,1.1,5.3,1.4c-0.9-0.9-4.3-4.2-5.6-5.6l-12.2-12.2l3.5-3.5l23.8,23.8L236.3,162.3z"/>
		</g>
	</g>
</g>
<g>
	<path fill="#FFFFFF" d="M220,130c-1.2,1.2-3,1.2-4.2,0c-1.2-1.2-1.2-3,0-4.2c1.2-1.2,3-1.2,4.2,0C221.2,127,221.2,128.8,220,130z
		 M216.1,126.1c-1,1-1,2.6,0,3.6c1,1,2.6,1,3.6,0c1-1,1-2.6,0-3.6C218.6,125.1,217.1,125.1,216.1,126.1z M218.5,127.6l1.4,0.5
		l-0.5,0.5l-1.3-0.4l-0.4,0.5l0.9,0.9l-0.4,0.4l-2.3-2.3l1-1c0.4-0.4,1-0.5,1.5-0.1C218.7,126.8,218.7,127.2,218.5,127.6z
		 M217.2,126.9l-0.6,0.6l0.7,0.7l0.6-0.6c0.2-0.2,0.3-0.5,0-0.7C217.7,126.6,217.4,126.7,217.2,126.9z"/>
</g>
</svg>
